<?xml version="1.0" encoding="UTF-8" standalone="no"?>
<!-- Created with Inkscape (http://www.inkscape.org/) -->

<svg
   width="20mm"
   height="20mm"
   viewBox="0 0 20 20"
   version="1.1"
   id="svg5"
   sodipodi:docname="GearWheels.svg"
   inkscape:version="1.1 (c68e22c387, 2021-05-23)"
   xmlns:inkscape="http://www.inkscape.org/namespaces/inkscape"
   xmlns:sodipodi="http://sodipodi.sourceforge.net/DTD/sodipodi-0.dtd"
   xmlns="http://www.w3.org/2000/svg"
   xmlns:svg="http://www.w3.org/2000/svg">
  <sodipodi:namedview
     id="namedview7"
     pagecolor="#ffffff"
     bordercolor="#666666"
     borderopacity="1.0"
     inkscape:pageshadow="2"
     inkscape:pageopacity="0.0"
     inkscape:pagecheckerboard="0"
     inkscape:document-units="mm"
     showgrid="false"
     width="20mm"
     inkscape:zoom="5.9366442"
     inkscape:cx="25.856358"
     inkscape:cy="34.362848"
     inkscape:window-width="1920"
     inkscape:window-height="1011"
     inkscape:window-x="0"
     inkscape:window-y="32"
     inkscape:window-maximized="1"
     inkscape:current-layer="layer1" />
  <defs
     id="defs2" />
  <g
     inkscape:label="Calque 1"
     inkscape:groupmode="layer"
     id="layer1">
    <path
       id="path2086"
       style="fill:#000000;stroke-width:0.174929"
       d="M 5.410254,0.28091413 4.7880931,1.7503896 A 3.9779158,3.9779158 0 0 0 3.0992726,2.4046665 L 1.4975752,1.7558562 2.1378442,3.3363707 A 3.9779158,3.9779158 0 0 0 1.4060105,5.0764399 L -0.04364864,5.6900596 1.4063521,6.3040212 a 3.9779158,3.9779158 0 0 0 0.5446046,1.4708414 l -0.6204529,1.531658 1.4363346,-0.581846 a 3.9779158,3.9779158 0 0 0 2.0342377,0.90403 L 5.4625282,11.191795 6.1437959,9.5825806 a 3.9779158,3.9779158 0 0 0 1.3700529,-0.567495 l 1.588373,0.643685 -0.622845,-1.5378074 A 3.9779158,3.9779158 0 0 0 9.2546008,6.3498027 L 10.745602,5.7184172 9.2655348,5.0918146 A 3.9779158,3.9779158 0 0 0 8.5542008,3.3561869 L 9.1674778,1.8429792 7.6511958,2.457282 A 3.9779158,3.9779158 0 0 0 6.0433482,1.7763556 Z M 5.3330392,2.5235638 A 3.1653262,3.1653262 0 0 1 8.4981688,5.6890346 3.1653262,3.1653262 0 0 1 5.3330392,8.8541636 3.1653262,3.1653262 0 0 1 2.1675685,5.6890346 3.1653262,3.1653262 0 0 1 5.3330392,2.5235638 Z" />
    <path
       id="path2828"
       style="fill:#000000;stroke-width:0.174929"
       d="M 14.749845,0.92289133 14.127683,2.3923667 A 3.9779158,3.9779158 0 0 0 12.438864,3.0466436 L 10.837167,2.3978334 11.477436,3.9783485 A 3.9779158,3.9779158 0 0 0 10.745602,5.7184172 L 9.2959418,6.332037 10.745943,6.9459978 a 3.9779158,3.9779158 0 0 0 0.544604,1.470842 l -0.620452,1.5316578 1.436333,-0.581846 a 3.9779158,3.9779158 0 0 0 2.034239,0.9040304 l 0.661453,1.56309 0.681267,-1.609214 A 3.9779158,3.9779158 0 0 0 16.85344,9.6570626 l 1.588372,0.6436864 -0.622845,-1.5378084 a 3.9779158,3.9779158 0 0 0 0.775225,-1.7711613 l 1.491,-0.6313852 L 18.605126,5.733792 A 3.9779158,3.9779158 0 0 0 17.893792,3.9981643 L 18.507069,2.4849564 16.990787,3.0992593 A 3.9779158,3.9779158 0 0 0 15.382939,2.4183329 Z M 14.672625,3.165541 a 3.1653262,3.1653262 0 0 1 3.165129,3.1654705 3.1653262,3.1653262 0 0 1 -3.165129,3.1651291 3.1653262,3.1653262 0 0 1 -3.16547,-3.1651291 3.1653262,3.1653262 0 0 1 3.16547,-3.1654705 z" />
    <path
       id="path2830"
       style="fill:#000000;stroke-width:0.174929"
       d="M 10.037001,8.453056 9.414839,9.9225314 A 3.9779158,3.9779158 0 0 0 7.72602,10.576808 L 6.124323,9.9279981 6.764592,11.508513 a 3.9779158,3.9779158 0 0 0 -0.731834,1.740069 l -1.4496602,0.61362 1.4500012,0.613961 a 3.9779158,3.9779158 0 0 0 0.544604,1.470842 l -0.620452,1.531657 1.436333,-0.581846 a 3.9779158,3.9779158 0 0 0 2.034239,0.904031 l 0.661453,1.56309 0.681267,-1.609214 a 3.9779158,3.9779158 0 0 0 1.370053,-0.567496 l 1.588372,0.643687 -0.622845,-1.537809 a 3.9779158,3.9779158 0 0 0 0.775225,-1.771161 l 1.491,-0.631385 -1.480066,-0.626602 a 3.9779158,3.9779158 0 0 0 -0.711334,-1.735628 l 0.613277,-1.513208 -1.516282,0.614303 A 3.9779158,3.9779158 0 0 0 10.670095,9.9484976 Z m -0.07722,2.24265 a 3.1653262,3.1653262 0 0 1 3.165129,3.16547 3.1653262,3.1653262 0 0 1 -3.165129,3.165129 3.1653262,3.1653262 0 0 1 -3.16547,-3.165129 3.1653262,3.1653262 0 0 1 3.16547,-3.16547 z" />
  </g>
</svg>
