<?xml version="1.0" encoding="UTF-8" standalone="no"?>
<svg
   xmlns:dc="http://purl.org/dc/elements/1.1/"
   xmlns:cc="http://creativecommons.org/ns#"
   xmlns:rdf="http://www.w3.org/1999/02/22-rdf-syntax-ns#"
   xmlns:svg="http://www.w3.org/2000/svg"
   xmlns="http://www.w3.org/2000/svg"
   xmlns:sodipodi="http://sodipodi.sourceforge.net/DTD/sodipodi-0.dtd"
   xmlns:inkscape="http://www.inkscape.org/namespaces/inkscape"
   width="200mm"
   height="200mm"
   viewBox="0 0 200 200"
   version="1.1"
   id="svg8"
   inkscape:version="1.0.2-2 (e86c870879, 2021-01-15)"
   sodipodi:docname="Utility.svg">
  <defs
     id="defs2" />
  <sodipodi:namedview
     id="base"
     pagecolor="#ffffff"
     bordercolor="#666666"
     borderopacity="1.0"
     inkscape:pageopacity="0.0"
     inkscape:pageshadow="2"
     inkscape:zoom="0.60154641"
     inkscape:cx="261.11858"
     inkscape:cy="255.56097"
     inkscape:document-units="mm"
     inkscape:current-layer="layer1"
     inkscape:document-rotation="0"
     showgrid="false"
     inkscape:window-width="1920"
     inkscape:window-height="1017"
     inkscape:window-x="-8"
     inkscape:window-y="-8"
     inkscape:window-maximized="1" />
  <metadata
     id="metadata5">
    <rdf:RDF>
      <cc:Work
         rdf:about="">
        <dc:format>image/svg+xml</dc:format>
        <dc:type
           rdf:resource="http://purl.org/dc/dcmitype/StillImage" />
        <dc:title></dc:title>
      </cc:Work>
    </rdf:RDF>
  </metadata>
  <g
     inkscape:label="Calque 1"
     inkscape:groupmode="layer"
     id="layer1"
     sodipodi:insensitive="true">
    <path
       id="rect833"
       style="fill:#333333;fill-opacity:1;stroke:none;stroke-width:18.3601;stroke-opacity:0"
       d="m 158.5699,4.1859577 c -13.19853,1.6896614 -18.14712,3.7190656 -28.06342,13.6352843 -10.06652,10.066422 -14.90094,22.925526 -12.95638,35.003433 -0.27767,2.977925 -1.44715,7.182247 -5.32113,11.05622 L 3.7044622,172.40544 26.915069,195.61605 135.56363,86.967455 c 3.78819,-3.68085 8.55733,-4.748084 11.67021,-5.027346 11.8828,1.664534 24.45477,-3.174025 34.33608,-13.055427 9.81479,-9.814892 12.09194,-16.28919 13.91271,-27.719644 l -12.84291,-2.968999 c -1.49288,6.988805 -4.029,14.997019 -10.3951,21.363338 -10.58216,10.582273 -24.78526,13.536368 -35.36742,2.954095 -10.58181,-10.582235 -7.62751,-24.784957 2.95459,-35.366924 6.46819,-6.468357 13.94281,-9.138727 21.7624,-10.315293 z"
       inkscape:label="Key" />
    <path
       id="rect857"
       style="fill:#333333;fill-opacity:1;stroke:none;stroke-width:30.3938;stroke-opacity:0"
       d="m 6.4488827,25.857577 14.5872793,13.857484 3.819887,1.387549 85.455221,85.45529 -5.39734,5.39734 2.30984,2.30982 -2.92075,2.92076 55.43406,55.43406 26.35161,-26.3516 -55.43405,-55.43407 -2.42719,2.42718 -2.30983,-2.30984 -5.30471,5.30471 L 35.1726,30.815904 33.624987,26.879198 19.912643,12.393813 Z"
       inkscape:label="screwdriver" />
  </g>
</svg>
